<?xml version="1.0" encoding="UTF-8" standalone="no"?>
<svg
   xmlns:dc="http://purl.org/dc/elements/1.1/"
   xmlns:cc="http://creativecommons.org/ns#"
   xmlns:rdf="http://www.w3.org/1999/02/22-rdf-syntax-ns#"
   xmlns:svg="http://www.w3.org/2000/svg"
   xmlns="http://www.w3.org/2000/svg"
   xmlns:sodipodi="http://sodipodi.sourceforge.net/DTD/sodipodi-0.dtd"
   xmlns:inkscape="http://www.inkscape.org/namespaces/inkscape"
   height="24"
   viewBox="0 -960 960 960"
   width="24"
   version="1.1"
   id="svg845"
   sodipodi:docname="inventory2 -active.svg"
   inkscape:version="1.0.2-2 (e86c870879, 2021-01-15)">
  <metadata
     id="metadata851">
    <rdf:RDF>
      <cc:Work
         rdf:about="">
        <dc:format>image/svg+xml</dc:format>
        <dc:type
           rdf:resource="http://purl.org/dc/dcmitype/StillImage" />
      </cc:Work>
    </rdf:RDF>
  </metadata>
  <defs
     id="defs849" />
  <sodipodi:namedview
     pagecolor="#ffffff"
     bordercolor="#666666"
     borderopacity="1"
     objecttolerance="10"
     gridtolerance="10"
     guidetolerance="10"
     inkscape:pageopacity="0"
     inkscape:pageshadow="2"
     inkscape:window-width="820"
     inkscape:window-height="480"
     id="namedview847"
     showgrid="false"
     inkscape:zoom="22.083333"
     inkscape:cx="14.460377"
     inkscape:cy="16.890566"
     inkscape:window-x="0"
     inkscape:window-y="0"
     inkscape:window-maximized="0"
     inkscape:current-layer="svg845" />
  <path
     d="M200-80q-33 0-56.5-23.5T120-160v-451q-18-11-29-28.5T80-680v-120q0-33 23.5-56.5T160-880h640q33 0 56.5 23.5T880-800v120q0 23-11 40.5T840-611v451q0 33-23.5 56.5T760-80H200Zm0-520v440h560v-440H200Zm-40-80h640v-120H160v120Zm200 280h240v-80H360v80Zm120 20Z"
     id="path843"
     style="fill:#56c074;stroke-width:1.0582676;stroke-miterlimit:4;stroke-dasharray:none;fill-opacity:1" />
</svg>
