
        <svg xmlns="http://www.w3.org/2000/svg" xmlns:xlink="http://www.w3.org/1999/xlink" version="1.1" width="3300" 
        height="1320" viewBox="0 0 3300 1320">
			
			<g transform="scale(15) translate(10, 10)">
				<defs id="SvgjsDefs4252"></defs><g id="SvgjsG4253" featureKey="nameContainer" transform="matrix(1,0,0,1,0,0)" fill="#4e9127"><rect y="0" height="1" width="1" opacity="0"></rect><rect y="63" width="200" height="5"></rect></g><g id="SvgjsG4254" featureKey="nameFeature-0" transform="matrix(1.1785093949331793,0,0,1.1785093949331793,-1.6070741538769733,2.9458020727853977)" fill="#393e46"><path d="M5.7219 39.946524 l-3.6898 0 l0 -27.166 l-0.66845 -0.82888 l4.3583 0 l0 27.995 z M7.21925294117647 12.004999999999999 l5.2406 0 l3.4225 15.267 l0 -15.241 l3.6631 0 l0 27.968 l-4.5722 0 l-3.3957 -15.187 l0 15.214 l-3.6898 0 l0 -27.193 z M20.668450320855612 12.032 l4.2781 0 l2.4866 20.107 l2.4599 -20.107 l3.6898 0 l-3.4225 27.995 l-5.4813 0 l-3.3155 -27.166 l-0.026738 0 z M35.4010256684492 12.861 l-0.66845 -0.82888 l10.508 0 l0 4.2246 l-7.246 0 l1.0963 0.82888 l0 6.8182 l4.3316 0 l0 4.2513 l-5.4278 0 l1.0963 0.80214 l0 6.8449 l6.1497 0 l0 4.2246 l-9.8396 0 l0 -4.2246 l0 -7.6471 l0 -4.2513 l0 -11.043 z M46.09625828877005 12.004999999999999 l5.2406 0 l3.4225 15.267 l0 -15.241 l3.6631 0 l0 27.968 l-4.5722 0 l-3.3957 -15.187 l0 15.214 l-3.6898 0 l0 -27.193 z M63.34226363636363 16.203 l-3.984 0 l0 -4.2513 l11.658 0 l0 4.2513 l-5.0802 0 l1.0963 0.80214 l0 22.968 l-3.6898 0 l0 -23.77 z M75.64167326203209 35.8021 l4.3316 0 l0 -19.545 l-5.4011 0 l1.0695 0.82888 l0 18.717 z M83.63597326203208 14.678999999999998 l0 22.701 c0 1.4973 -1.1497 2.6471 -2.6471 2.6471 l-6.3636 0 c-1.4973 0 -2.6471 -1.1497 -2.6471 -2.6471 l0 -22.701 c0 -1.4171 1.1497 -2.6471 2.6471 -2.6471 l6.3636 0 c1.4973 0 2.6471 1.2299 2.6471 2.6471 z M88.95720802139037 23.824 l4.3048 0 l0 -7.6738 l-5.4011 0 l1.0963 0.82888 l0 6.8449 z M96.92550802139037 14.599 l0 10.802 c0 1.4973 -1.1497 2.6471 -2.6471 2.6471 l-0.50802 0 l3.1551 11.898 l-3.7968 0 l-3.1551 -11.898 l-2.1123 0 l1.0963 0.82888 l0 11.07 l-3.6898 0 l0 -23.797 l0 -3.3957 l-0.66845 -0.82888 l9.6791 0.026738 c1.4973 0 2.6471 1.1497 2.6471 2.6471 z M97.0053444919786 12.004999999999999 l4.2781 0 l2.9679 11.872 l2.9412 -11.872 l3.7968 0 l-4.8663 19.465 l-0.053476 0.24064 l0 8.3155 l-3.6631 0 l0 -8.3422 l-0.053476 -0.2139 l-4.6524 -18.636 z M118.58285133689839 12.032 l6.1765 0 l2.4866 9.4385 l2.5134 -9.4385 l5.508 0 l-0.026738 27.995 l-3.6631 0 l0 -20.535 l-4.3316 16.257 l0 0.026738 l0 -0.026738 l0 0.026738 l0 -0.026738 l-4.3048 -16.257 l0 20.535 l-3.6898 0 l0 -27.193 z M141.25665935828874 31.604300000000002 l3.7701 0 l-1.8717 -15.348 z M136.52405935828872 40.053476 l3.3422 -27.193 l-0.66845 -0.80214 l7.139 0 l3.4492 27.995 l-3.7166 0 l-0.50802 -4.2246 l-5.9091 -0.026738 l0.9893 0.7754 l-0.42781 3.4759 l-3.6898 0 z M152.03210320855612 16.203 l-3.984 0 l0 -4.2513 l11.658 0 l0 4.2513 l-5.0802 0 l1.0963 0.80214 l0 22.968 l-3.6898 0 l0 -23.77 z M161.22990267379677 12.861 l-0.66845 -0.82888 l10.508 0 l0 4.2246 l-7.246 0 l1.0963 0.82888 l0 6.8182 l4.3316 0 l0 4.2513 l-5.4278 0 l1.0963 0.80214 l0 6.8449 l6.1497 0 l0 4.2246 l-9.8396 0 l0 -4.2246 l0 -7.6471 l0 -4.2513 l0 -11.043 z"></path></g>
			</g>
		</svg>
	