<?xml version="1.0" encoding="UTF-8" standalone="no"?>
<svg
   xmlns:dc="http://purl.org/dc/elements/1.1/"
   xmlns:cc="http://creativecommons.org/ns#"
   xmlns:rdf="http://www.w3.org/1999/02/22-rdf-syntax-ns#"
   xmlns:svg="http://www.w3.org/2000/svg"
   xmlns="http://www.w3.org/2000/svg"
   xmlns:sodipodi="http://sodipodi.sourceforge.net/DTD/sodipodi-0.dtd"
   xmlns:inkscape="http://www.inkscape.org/namespaces/inkscape"
   height="24"
   viewBox="0 -960 960 960"
   width="24"
   version="1.1"
   id="svg865"
   sodipodi:docname="tags -active.svg"
   inkscape:version="1.0.2-2 (e86c870879, 2021-01-15)">
  <metadata
     id="metadata871">
    <rdf:RDF>
      <cc:Work
         rdf:about="">
        <dc:format>image/svg+xml</dc:format>
        <dc:type
           rdf:resource="http://purl.org/dc/dcmitype/StillImage" />
      </cc:Work>
    </rdf:RDF>
  </metadata>
  <defs
     id="defs869" />
  <sodipodi:namedview
     pagecolor="#ffffff"
     bordercolor="#666666"
     borderopacity="1"
     objecttolerance="10"
     gridtolerance="10"
     guidetolerance="10"
     inkscape:pageopacity="0"
     inkscape:pageshadow="2"
     inkscape:window-width="1366"
     inkscape:window-height="697"
     id="namedview867"
     showgrid="false"
     inkscape:zoom="22.083333"
     inkscape:cx="12"
     inkscape:cy="12"
     inkscape:window-x="-8"
     inkscape:window-y="-8"
     inkscape:window-maximized="1"
     inkscape:current-layer="svg865" />
  <path
     d="m159-168-34-14q-31-13-41.5-45t3.5-63l72-156v278Zm160 88q-33 0-56.5-23.5T239-160v-240l106 294q3 7 6 13.5t8 12.5h-40Zm206-4q-32 12-62-3t-42-47L243-622q-12-32 2-62.5t46-41.5l302-110q32-12 62 3t42 47l178 488q12 32-2 62.5T827-194L525-84Zm-86-476q17 0 28.5-11.5T479-600q0-17-11.5-28.5T439-640q-17 0-28.5 11.5T399-600q0 17 11.5 28.5T439-560Zm58 400 302-110-178-490-302 110 178 490ZM319-650l302-110-302 110Z"
     id="path863"
     style="opacity:1;fill:#56c074;fill-opacity:1" />
</svg>
